<?xml version="1.0" standalone="no"?>
<!DOCTYPE svg PUBLIC "-//W3C//DTD SVG 20010904//EN"
 "http://www.w3.org/TR/2001/REC-SVG-20010904/DTD/svg10.dtd">
<svg version="1.0" xmlns="http://www.w3.org/2000/svg"
 width="350.000000pt" height="350.000000pt" viewBox="0 0 350.000000 350.000000"
 preserveAspectRatio="xMidYMid meet">

<g transform="translate(0.000000,350.000000) scale(0.100000,-0.100000)"
fill="#000000" stroke="none">
<path d="M2456 3484 c-84 -20 -194 -76 -243 -123 -52 -50 -55 -60 -7 -31 105
65 182 84 313 78 113 -6 183 -30 274 -92 50 -34 96 -85 235 -262 176 -223 223
-299 243 -394 17 -78 6 -232 -20 -300 l-21 -55 21 25 c36 42 78 141 89 215 20
127 -7 268 -70 360 -62 90 -295 384 -348 438 -65 66 -159 117 -262 141 -79 19
-126 19 -204 0z"/>
<path d="M2192 2398 c-7 -7 -12 -22 -12 -33 0 -19 20 -30 134 -75 152 -60 202
-97 231 -174 30 -77 9 -181 -48 -243 -27 -30 -16 -39 31 -25 52 16 104 58 138
112 36 57 45 158 19 213 -34 72 -77 102 -251 171 -162 65 -218 78 -242 54z"/>
<path d="M3230 2070 c-19 -16 -30 -30 -23 -30 20 0 83 -73 90 -102 3 -16 8
-28 12 -28 16 0 81 63 81 79 0 10 -16 39 -36 64 -44 56 -73 60 -124 17z"/>
<path d="M1660 1964 c0 -3 69 -93 153 -201 83 -107 176 -226 205 -264 43 -57
59 -70 95 -79 23 -6 51 -14 62 -17 22 -7 16 2 -110 162 -39 50 -126 161 -193
248 l-123 157 -44 0 c-25 0 -45 -3 -45 -6z"/>
<path d="M492 903 c-7 -2 -17 -13 -22 -24 -16 -29 3 -55 64 -89 29 -17 61 -39
71 -50 10 -11 25 -20 33 -20 30 0 152 -80 157 -103 3 -12 4 -80 3 -152 l-3
-130 -325 -5 c-362 -6 -368 -7 -410 -75 -43 -70 -32 -154 27 -207 55 -50 -26
-48 1673 -48 1726 0 1620 -4 1672 58 55 65 59 134 14 203 -47 70 -40 69 -555
69 l-461 0 0 125 0 125 43 27 c23 15 56 32 72 37 17 6 51 25 77 41 50 31 68
66 51 94 -21 33 -54 24 -166 -45 -61 -37 -115 -67 -121 -67 -6 0 -59 30 -117
66 -111 70 -151 81 -169 48 -21 -41 28 -95 122 -134 19 -8 53 -26 76 -41 l42
-26 0 -125 0 -125 -725 0 -725 0 0 154 0 154 33 20 c66 41 108 62 122 62 8 0
29 13 47 28 18 16 52 39 75 52 24 13 45 32 49 42 8 27 -4 56 -27 63 -21 7 -45
-5 -223 -117 -60 -37 -116 -68 -124 -68 -8 0 -71 35 -141 79 -116 73 -186 112
-193 110 -2 0 -9 -3 -16 -6z"/>
</g>
</svg>
