<?xml version="1.0" encoding="utf-8"?>
<!-- Generator: Adobe Illustrator 18.0.0, SVG Export Plug-In . SVG Version: 6.00 Build 0)  -->
<!DOCTYPE svg PUBLIC "-//W3C//DTD SVG 1.1//EN" "http://www.w3.org/Graphics/SVG/1.1/DTD/svg11.dtd">
<svg version="1.1" id="Layer_1" xmlns="http://www.w3.org/2000/svg" xmlns:xlink="http://www.w3.org/1999/xlink" x="0px" y="0px"
	 viewBox="0 0 1136 936" enable-background="new 0 0 1136 936" xml:space="preserve">
<g>
	<g>
		<ellipse fill="#808285" cx="204.8" cy="419.9" rx="108.2" ry="19.2"/>
		<ellipse fill="#808285" cx="565.8" cy="419.9" rx="108.2" ry="19.2"/>
		<ellipse fill="#808285" cx="576.7" cy="864.3" rx="108.2" ry="19.2"/>
		<ellipse fill="#808285" cx="186.9" cy="864.3" rx="108.2" ry="19.2"/>
		<ellipse fill="#808285" cx="966.1" cy="864.3" rx="108.2" ry="19.2"/>
		<ellipse fill="#808285" cx="932.2" cy="419.9" rx="108.2" ry="19.2"/>
	</g>
	<g>
		<g>
			<path fill="#A7742A" d="M551.6,238.3c-0.4,4.3,15.8,129.3-34.7,181.5h97.6c0,0-33.4-119.9-15-181.5H551.6z"/>
			<path fill="#926522" d="M593.4,281.2c0.2,0.4,0.5,0.8,0.7,1.2c0.1-16.2,1.7-31.4,5.5-44.1h-47.9c-0.2,2.1,3.7,34.4,1.4,72.7
				C571.8,310.4,587.6,298.1,593.4,281.2z"/>
			<path fill="#55B948" d="M683.9,155.6c-0.9,0-1.8,0-2.6,0.1c1.7-4.7,2.6-9.8,2.6-15.1c0-24.3-19.7-44.1-44.1-44.1
				c-8,0-15.5,2.1-21.9,5.8c-4.2-20-21.9-35-43.1-35c-15.8,0-29.7,8.4-37.5,20.9c-2.6-0.8-5.4-1.2-8.3-1.2
				c-14.9,0-27.2,10.9-29.5,25.2c-20.5,3.8-35.9,21.8-35.9,43.3c0,7.1,1.7,13.9,4.7,19.9c-15.2,7-25.7,22.3-25.7,40.1
				c0,24.3,19.7,44.1,44.1,44.1c7.7,0,14.9-2,21.2-5.4c2.2,22.3,21,39.7,43.9,39.7c19.4,0,35.8-12.5,41.7-29.9
				c7.3,14.2,22.1,23.9,39.2,23.9c24.3,0,44.1-19.7,44.1-44.1c0-0.2,0-0.4,0-0.6c2.4,0.4,4.8,0.6,7.3,0.6
				c24.4,0,44.1-19.7,44.1-44.1C728,175.4,708.3,155.6,683.9,155.6z"/>
			<g>
				<path fill="#4BA640" d="M683.7,136.8c-0.2-1.9-0.5-3.8-0.9-5.6c-0.4,2-0.9,3.9-1.6,5.7C682.1,136.9,682.9,136.8,683.7,136.8z"/>
				<path fill="#4BA640" d="M683.9,225c-2.5,0-4.9-0.2-7.3-0.6c0,0.2,0,0.4,0,0.6c0,24.3-19.7,44.1-44.1,44.1
					c-17.1,0-31.8-9.7-39.2-23.9c-5.9,17.4-22.4,29.9-41.7,29.9c-22.9,0-41.7-17.4-43.9-39.7c-6.3,3.5-13.5,5.4-21.2,5.4
					c-21.1,0-38.8-14.8-43.1-34.7c-0.7,3-1,6.2-1,9.4c0,24.3,19.7,44.1,44.1,44.1c7.7,0,14.9-2,21.2-5.4c2.2,22.3,21,39.7,43.9,39.7
					c19.4,0,35.8-12.5,41.7-29.9c7.3,14.2,22.1,23.9,39.2,23.9c24.3,0,44.1-19.7,44.1-44.1c0-0.2,0-0.4,0-0.6
					c2.4,0.4,4.8,0.6,7.3,0.6c24.4,0,44.1-19.7,44.1-44.1c0-3.2-0.4-6.4-1-9.4C722.7,210.1,705,225,683.9,225z"/>
			</g>
		</g>
		<g>
			<g>
				<path fill="#255228" d="M373.3,216.3c0-6-2-11.5-5.5-15.8c4.9-4.7,8-11.3,8-18.7c0-14.3-11.6-25.8-25.8-25.8
					c-0.9,0-1.8,0-2.6,0.1c0-0.4,0-0.7,0-1.1c0-11-4.7-20.9-12.3-27.7c0.4-1.8,0.7-3.8,0.7-5.7c0-14.3-11.6-25.8-25.8-25.8
					c-3.2,0-6.2,0.6-9,1.7c-2.6-11.6-12.9-20.3-25.2-20.3c-9.1,0-17.2,4.8-21.7,11.9c-4.4-3.5-9.9-5.5-16-5.5
					c-7.6,0-14.4,3.3-19.1,8.5c-6.8-7.3-16.6-11.9-27.4-11.9c-14.9,0-27.8,8.7-33.8,21.3c-6.3-4.7-14.1-7.5-22.5-7.5
					c-12.5,0-23.5,6.1-30.3,15.4c-0.4,0-0.7,0-1.1,0c-20.7,0-37.5,16.8-37.5,37.5c0,11.5,5.2,21.8,13.3,28.6
					c-0.2,1.2-0.4,2.4-0.4,3.6c-19.4,1.4-34.6,17.6-34.6,37.3c0,20.7,16.8,37.5,37.5,37.5c3.1,0,6.1-0.4,9-1.1
					c5.7,13.4,19,22.9,34.5,22.9c6.6,0,12.8-1.7,18.2-4.7c4.6,4.1,10.6,6.6,17.2,6.6c5.8,0,11.1-1.9,15.4-5.1
					c3.9,1.7,8.2,2.8,12.7,3.1c0.1-4.4,0-8-0.2-10.5c-0.9-13.7-13.7-29.1-20.2-36.1c3.2-2.2,5.8-5.1,7.7-8.4l25.7,27.3
					c2.8-22-7.6-45.4-15.5-59.4c4.3-0.5,8.2-2,11.6-4.2c0.9,1.8,2,3.5,3.3,5c6.6,19.7,9.4,43.9,9.4,43.9c1.5-6.3,1.1-24.1,0.6-36.6
					c3,1.2,6.3,1.9,9.7,1.9c0.2,0,0.4,0,0.5,0l1,12.8c1.7-7.5,12.8-12.6,21.3-15.5c2.4,1.9,5.1,3.4,8,4.5
					c-24.1,14.6-32.6,53.3-32.6,53.3c5.4-22.5,29.7-36.7,44.7-43.5c0.7,3.7,2.3,7.1,4.4,10c-14.6,8.7-30,23.9-30,23.9
					c14.9-5.3,27.7-7.4,37-8.2c-0.1,0.8-0.1,1.7-0.1,2.5c0,1.7,0.2,3.4,0.5,5.1c-19.9,2.4-39.8,13.8-39.8,13.8
					c-2.4,3.2-4.3,7.2-5.9,11.8c4.2,1.6,8.8,2.6,13.6,2.6c10.9,0,20.7-4.6,27.5-12c4.2,2.9,9.3,4.7,14.8,4.7c2.6,0,5.2-0.4,7.6-1.1
					c2.1,0.7,4.4,1,6.8,1.1c4.6,4.3,10.8,7,17.7,7c5.8,0,11.2-2,15.5-5.2c4.4,3.5,10,5.6,16.1,5.6c14.3,0,25.8-11.6,25.8-25.8
					c0-6.3-2.2-12-5.9-16.5C372,225.3,373.3,220.9,373.3,216.3z"/>
				<path fill="#B04E27" d="M276.2,243.2c-0.3-1.6-0.5-3.4-0.5-5.1c0-0.9,0-1.7,0.1-2.5c-9.4,0.8-22.2,3-37,8.2
					c0,0,15.4-15.2,30-23.9c-2.1-2.9-3.7-6.3-4.4-10c-14.9,6.8-39.2,21-44.7,43.5c0,0,8.4-38.6,32.6-53.3c-3-1-5.7-2.5-8-4.5
					c-8.5,2.9-19.7,8-21.3,15.5l-1-12.8c-0.2,0-0.4,0-0.5,0c-3.4,0-6.7-0.7-9.7-1.9c0.5,12.4,0.9,30.3-0.6,36.6
					c0,0-2.8-24.2-9.4-43.9c-1.3-1.5-2.4-3.2-3.3-5c-3.4,2.3-7.3,3.8-11.6,4.2c7.9,14,18.3,37.4,15.5,59.4l-25.7-27.3
					c-1.9,3.3-4.5,6.2-7.7,8.4c6.5,7,19.3,22.4,20.2,36.1c0.2,2.5,0.2,6.1,0.2,10.5c-0.3,27.8-5.2,87.3-16.9,106.6
					c-13.5,22.3-43,28.7-43,28.7v6.8c0,0,47.8-14.7,53.8-18.7l5.6,31.9l14-1.6c0,0-3.7-26.7-1.7-31.9l31.1,27.1l8.8-3.6l-12.4-25.9
					c0,0,28.3,21.1,49.4,23.5l4.4-10.8c0,0-40.6-10.8-47.4-25.5c-6-13-15.6-79.6-4.3-113.3c1.5-4.6,3.5-8.6,5.9-11.8
					C236.4,257,256.3,245.6,276.2,243.2z"/>
			</g>
			<g>
				<g>
					<g>
						<path fill="#1A461F" d="M350,261.7c-6.1,0-11.6-2.1-16.1-5.6c-4.3,3.3-9.7,5.2-15.5,5.2c-6.8,0-13-2.7-17.7-7
							c-2.3-0.1-4.6-0.4-6.8-1.1c-2.4,0.7-4.9,1.1-7.6,1.1c-5.5,0-10.6-1.7-14.8-4.7c-6.8,7.4-16.6,12-27.5,12
							c-3.4,0-6.8-0.5-9.9-1.3c-1.4,2.5-2.6,5.3-3.7,8.4c4.2,1.6,8.8,2.6,13.6,2.6c10.9,0,20.7-4.6,27.5-12
							c4.2,2.9,9.3,4.7,14.8,4.7c2.6,0,5.2-0.4,7.6-1.1c2.1,0.7,4.4,1,6.8,1.1c4.6,4.3,10.8,7,17.7,7c5.8,0,11.2-2,15.5-5.2
							c4.4,3.5,10,5.6,16.1,5.6c14.3,0,25.8-11.6,25.8-25.8c0-1.6-0.2-3.3-0.5-4.8C373.1,252.6,362.6,261.7,350,261.7z"/>
					</g>
					<g>
						<path fill="#1A461F" d="M176.4,262.8c-4.3,3.2-9.6,5.1-15.4,5.1c-6.6,0-12.7-2.5-17.2-6.6c-5.4,3-11.6,4.7-18.2,4.7
							c-15.5,0-28.8-9.4-34.5-22.9c-2.9,0.7-5.9,1.1-9,1.1c-19.1,0-34.8-14.2-37.1-32.7c-0.2,1.6-0.3,3.2-0.3,4.8
							c0,20.7,16.8,37.5,37.5,37.5c3.1,0,6.1-0.4,9-1.1c5.7,13.4,19,22.9,34.5,22.9c6.6,0,12.8-1.7,18.2-4.7
							c4.6,4.1,10.6,6.6,17.2,6.6c5.8,0,11.1-1.9,15.4-5.1c3.9,1.7,8.2,2.8,12.7,3.1c0-3.9,0-7.2-0.1-9.6
							C184.6,265.6,180.3,264.5,176.4,262.8z"/>
					</g>
				</g>
			</g>
		</g>
		<g>
			<path fill="none" d="M975.5,288.2c0.4-1.4,0.9-2.7,1.6-3.9c-7.5-3.9-12.5-11.1-12.5-19.5c0-0.1,0-0.1,0-0.2
				c-1.3,0.1-2.7,0.2-4.1,0.2c-4.7,0-9.2-0.6-13.5-1.8l2.6,44.4L975.5,288.2z"/>
			<path fill="#B04E27" d="M975.5,288.2l-26,19.2l-2.6-44.4c-1.4-0.4-2.7-0.8-4.1-1.3c-8.3,6.2-19,9.9-30.6,9.9
				c-2.9,0-5.8-0.3-8.6-0.7c1.1,47,0.6,133.7-18.1,148.7h77.8l-12.2-95l26.8-19.6c-2.1-3.3-3.3-7.1-3.3-11.2
				C974.7,291.9,975,290.1,975.5,288.2z"/>
			<path fill="#255228" d="M1091.8,221c0-3.8-1-7.3-2.9-10.5c4.9-5.5,7.9-12.6,7.9-20.3c0-9.2-4.3-17.5-11.1-23.3
				c3.1-5.8,4.8-12.2,4.8-19.1c0-18.1-12.1-33.6-29.3-40.3c-1.7-16.4-16.8-29.2-35.3-29.2c-9.5,0-18.2,3.4-24.6,9
				c-8.5-12.4-23.7-20.6-40.9-20.6c-10,0-19.2,2.8-26.9,7.5c-3.5-12.5-16.1-21.8-31-21.8c-17.7,0-32,13-32,29.1
				c0,4.1,0.9,8,2.6,11.6c-0.9-0.1-1.8-0.1-2.6-0.1c-10.6,0-20,4.7-25.9,11.9c-22.1,4-38.8,21.7-38.8,42.9c0,9.4,3.3,18.1,8.8,25.2
				c-4.6,5-7.4,11.5-7.4,18.5c0,4.3,1,8.3,2.9,12c-5.1,7-8.1,15.3-8.1,24.3c0,24.2,21.6,43.8,48.2,43.8c11.8,0,22.6-3.9,31-10.3
				c6.3,4.8,14,8.2,22.4,9.5c2.8,0.5,5.7,0.7,8.6,0.7c11.6,0,22.3-3.7,30.6-9.9c1.3,0.5,2.7,0.9,4.1,1.3c4.3,1.1,8.8,1.8,13.5,1.8
				c1.4,0,2.7-0.1,4.1-0.2c0,0.1,0,0.1,0,0.2c0,8.4,5.1,15.6,12.5,19.5c-0.7,1.2-1.2,2.6-1.6,3.9c-0.5,1.8-0.8,3.7-0.8,5.7
				c0,4.1,1.2,7.9,3.3,11.2c4.3,6.7,12.3,11.3,21.4,11.3c9.8,0,18.2-5.1,22.2-12.6c6.6,3.1,14.1,4.8,22,4.8
				c26.6,0,48.2-19.6,48.2-43.8c0-9.8-3.5-18.8-9.5-26.1C1088.1,234.6,1091.8,228.2,1091.8,221z"/>
			<g>
				<path fill="#A24822" d="M970.5,292c1.3,1.4,2.7,2.6,4.3,3.6c0-0.6-0.1-1.1-0.1-1.7c0-2,0.3-3.9,0.8-5.7L970.5,292z"/>
				<path fill="#A24822" d="M975.7,300.3c-0.1,0.2-0.2,0.4-0.2,0.6c-0.5,1.8-0.8,3.7-0.8,5.7c0,0.3,0,0.6,0,0.9l3.3-2.4
					C977.1,303.6,976.3,302,975.7,300.3z"/>
				<path fill="#A24822" d="M903.7,271c0.1,4,0.2,8.2,0.2,12.7c2.7,0.4,5.5,0.7,8.4,0.7c11.6,0,22.3-3.7,30.6-9.9
					c1.3,0.5,2.7,0.9,4.1,1.3c0.2,0.1,0.5,0.1,0.8,0.2l-0.8-12.8c-1.4-0.4-2.7-0.8-4.1-1.3c-8.3,6.2-19,9.9-30.6,9.9
					C909.3,271.7,906.5,271.5,903.7,271z"/>
			</g>
			<path fill="#1A461F" d="M1047.2,296.4c-7.9,0-15.4-1.7-22-4.8c-4,7.4-12.4,12.6-22.2,12.6c-9.2,0-17.1-4.5-21.4-11.3
				c-2.1-3.3-3.3-7.1-3.3-11.2c0-2,0.3-3.9,0.8-5.7c0.4-1.4,0.9-2.7,1.6-3.9c-7.5-3.9-12.5-11.1-12.5-19.5c0-0.1,0-0.1,0-0.2
				c-1.3,0.1-2.7,0.2-4.1,0.2c-4.7,0-9.2-0.6-13.5-1.8c-1.4-0.4-2.7-0.8-4.1-1.3c-8.3,6.2-19,9.9-30.6,9.9c-2.9,0-5.8-0.3-8.6-0.7
				c-8.4-1.4-16.1-4.7-22.4-9.5c-8.4,6.4-19.2,10.3-31,10.3c-26.6,0-48.2-19.6-48.2-43.8c0-1.8,0.1-3.6,0.4-5.3
				c-2.6,5.4-4,11.3-4,17.5c0,24.2,21.6,43.8,48.2,43.8c11.8,0,22.6-3.9,31-10.3c6.3,4.8,14,8.2,22.4,9.5c2.8,0.5,5.7,0.7,8.6,0.7
				c11.6,0,22.3-3.7,30.6-9.9c1.3,0.5,2.7,0.9,4.1,1.3c4.3,1.1,8.8,1.8,13.5,1.8c1.4,0,2.7-0.1,4.1-0.2c0,0.1,0,0.1,0,0.2
				c0,8.4,5.1,15.6,12.5,19.5c-0.7,1.2-1.2,2.6-1.6,3.9c-0.5,1.8-0.8,3.7-0.8,5.7c0,4.1,1.2,7.9,3.3,11.2
				c4.3,6.7,12.3,11.3,21.4,11.3c9.8,0,18.2-5.1,22.2-12.6c6.6,3.1,14.1,4.8,22,4.8c24.6,0,45-16.8,47.9-38.4
				C1084,285.6,1067,296.4,1047.2,296.4z"/>
		</g>
		<g>
			<path fill="none" d="M240.9,702.7l12.9-10.4c-3.6-0.9-6.9-2.1-9.9-3.6L240.9,702.7z"/>
			<path fill="none" d="M169,623.7c-4.3,12.6-7,27-3,38.4c0,0,14.8-17.5,29.2-38.9c-5,0.7-10.1,1.1-15.4,1.1
				C176.1,624.2,172.5,624.1,169,623.7z"/>
			<path fill="#A7742A" d="M213.8,618.7c-5.8,2-12.1,3.5-18.7,4.4c-14.4,21.5-29.2,38.9-29.2,38.9c-4-11.4-1.3-25.8,3-38.4
				c-3.9-0.4-7.8-1-11.5-1.8c-7.3,18.5-12.1,42.7-3.7,66.7c17.3,49.6-7.5,167.4-7.5,167.4h65.2c-9.9-36.2-17.6-75.1-23.3-107.7
				c17.4-10.2,53.1-32.2,74.7-54.6c-3.1-0.2-6.2-0.7-9-1.4l-12.9,10.4l3-14c-2.8-1.4-5.4-3.1-7.5-4.9l-5.9,20.1
				c0,0-25.4,21.2-45.6,24.5c-5.4-33.4-8-56.4-8-56.4C192.8,659.8,205,638.6,213.8,618.7z"/>
			<path fill="#55B948" d="M179.8,624.2c5.3,0,10.4-0.4,15.4-1.1c6.6-0.9,12.9-2.4,18.7-4.4c8.4-2.9,15.9-6.9,21.9-11.6
				c9.6,11.3,28.1,19,49.3,19c27.7,0,50.8-13.1,55.4-30.3c23.6-4.4,40.9-18.5,40.9-35.3c0-15.8-15.4-29.3-36.9-34.5
				c6.2-5.9,9.8-13,9.8-20.7c0-20.3-25.2-36.7-56.3-36.7c-8.2,0-16,1.1-23,3.2c-10.2-9.5-27.1-15.8-46.3-15.8
				c-19.5,0-36.7,6.5-46.8,16.3c-5.7-0.9-11.7-1.4-17.8-1.4c-40,0-72.5,21.1-72.5,47.2c0,1.9,0.2,3.9,0.6,5.8
				c-29.6,1.1-53,17.1-53,36.6c0,20.3,25.2,36.7,56.3,36.7c6.1,0,12-0.6,17.5-1.8c8.2,12.6,24.5,22.3,44.6,26.5
				c3.7,0.8,7.6,1.4,11.5,1.8C172.5,624.1,176.1,624.2,179.8,624.2z"/>
			<path fill="#55B948" d="M253.8,692.3c2.9,0.7,5.9,1.2,9,1.4c1.5,0.1,2.9,0.2,4.4,0.2c0.5,0,0.9,0,1.4,0c0,0,0,0,0,0
				c0,9.9,12.3,17.9,27.5,17.9c15.2,0,27.5-8,27.5-17.9c0-3.5-1.6-6.8-4.2-9.5c8.3-3.1,13.9-8.9,13.9-15.6c0-6.2-4.9-11.7-12.3-14.9
				c0.8-1.6,1.2-3.4,1.2-5.2c0-9.9-12.3-17.9-27.5-17.9c-9.8,0-18.3,3.3-23.2,8.3c-5-3.8-12.4-6.1-20.7-6.1
				c-15.2,0-27.5,8-27.5,17.9c0,4.4,2.5,8.5,6.5,11.6c-0.8,2-1.2,4.1-1.2,6.3c0,5.6,2.9,10.8,7.7,15c2.1,1.9,4.7,3.5,7.5,4.9
				C246.9,690.3,250.2,691.5,253.8,692.3z"/>
			<path fill="#926522" d="M165.9,634.3c0.8-3.6,1.9-7.2,3.1-10.6c-3.9-0.4-7.8-1-11.5-1.8c-1.3,3.2-2.4,6.6-3.5,10.2
				c1.2,0.3,2.3,0.6,3.5,0.8C160.2,633.5,163,634,165.9,634.3z"/>
			<path fill="#926522" d="M195.1,623.2c-2.8,4.1-5.5,8.1-8.2,11.8c2.8-0.2,5.5-0.5,8.2-0.8c4.3-0.6,8.5-1.5,12.6-2.6
				c2.2-4.3,4.2-8.6,6.1-12.8C208,620.7,201.7,622.2,195.1,623.2z"/>
			<path fill="#926522" d="M236.4,694.8c1.6,1.4,3.4,2.7,5.4,3.8l2.1-9.8c-2.8-1.4-5.4-3.1-7.5-4.9l-2.5,8.5
				C234.6,693.2,235.5,694,236.4,694.8z"/>
			<path fill="#926522" d="M262.8,693.7c-3.1-0.2-6.2-0.7-9-1.4l-9.5,7.6c2.6,1.3,5.5,2.3,8.7,3.1
				C256.5,700,259.8,696.9,262.8,693.7z"/>
			<path fill="#4BA640" d="M296.1,702.7c-15.2,0-27.5-8-27.5-17.9c0,0,0,0,0,0c-0.5,0-0.9,0-1.4,0c-1.5,0-3-0.1-4.4-0.2
				c-3.1-0.2-6.2-0.7-9-1.4c-3.6-0.9-6.9-2.1-9.9-3.6c-2.8-1.4-5.4-3.1-7.5-4.9c-3.5-3-5.9-6.6-7-10.5c-0.4,1.5-0.6,3-0.6,4.5
				c0,5.6,2.9,10.8,7.7,15c2.1,1.9,4.7,3.5,7.5,4.9c3,1.5,6.3,2.7,9.9,3.6c2.9,0.7,5.9,1.2,9,1.4c1.5,0.1,2.9,0.2,4.4,0.2
				c0.5,0,0.9,0,1.4,0c0,0,0,0,0,0c0,9.9,12.3,17.9,27.5,17.9c15.2,0,27.5-8,27.5-17.9c0-1.6-0.3-3.1-0.9-4.5
				C319.6,697.1,308.9,702.7,296.1,702.7z"/>
			<path fill="#4BA640" d="M340.5,586.7c-4.7,17.2-27.7,30.3-55.4,30.3c-21.2,0-39.7-7.7-49.3-19c-6,4.7-13.5,8.7-21.9,11.6
				c-5.8,2-12.1,3.5-18.7,4.4c-5,0.7-10.1,1.1-15.4,1.1c-3.7,0-7.3-0.2-10.8-0.5c-3.9-0.4-7.8-1-11.5-1.8
				c-20.1-4.2-36.4-14-44.6-26.5c-5.5,1.2-11.4,1.8-17.5,1.8c-28.7,0-52.4-14-55.9-32.2c-0.3,1.5-0.4,3-0.4,4.5
				c0,20.3,25.2,36.7,56.3,36.7c6.1,0,12-0.6,17.5-1.8c8.2,12.6,24.5,22.3,44.6,26.5c3.7,0.8,7.6,1.4,11.5,1.8
				c3.5,0.3,7.1,0.5,10.8,0.5c5.3,0,10.4-0.4,15.4-1.1c6.6-0.9,12.9-2.4,18.7-4.4c8.4-2.9,15.9-6.9,21.9-11.6
				c9.6,11.3,28.1,19,49.3,19c27.7,0,50.8-13.1,55.4-30.3c23.6-4.4,40.9-18.5,40.9-35.3c0-1.5-0.1-3.1-0.4-4.5
				C378.1,570.7,361.9,582.8,340.5,586.7z"/>
		</g>
		<g>
			<path fill="none" d="M951.9,679.7c-9.6-3-17.9-8.9-23.9-16.7l11.9,50.9L951.9,679.7z"/>
			<path fill="none" d="M926.1,660.6c-0.3,0.3-0.5,0.6-0.8,0.9h1.4C926.6,661.2,926.4,660.9,926.1,660.6z"/>
			<path fill="#A7742A" d="M951.9,679.7l-12,34.2L928,663.1c-0.4-0.5-0.8-1.1-1.2-1.6h-1.4c-3.5,3.8-7.5,7.1-12,9.7
				c5.4,37.3,22.2,170.8-11.6,193c0,0,21.8-1.4,35.8-17l49.4,17v-14.3c0,0,28.6,15.6,43.5,14.3c0,0-64.7-113.4-63.5-182.1
				c0,0,0,0-0.1,0C961.7,682.1,956.6,681.2,951.9,679.7z"/>
			<path fill="#55B948" d="M1086.8,579c0-13.6-5.5-25.8-14.3-34.8c4.7-5,7.6-11.8,7.6-19.3c0-15.6-12.7-28.3-28.3-28.3
				c-6.3,0-12.1,2-16.8,5.5c-6.5-19.8-25-34-46.9-34c-10.3,0-19.9,3.2-27.9,8.6c-8.8-13.4-24-22.3-41.3-22.3
				c-15.2,0-28.8,6.9-37.9,17.7c-6-2.6-12.6-4-19.6-4c-27.3,0-49.4,22.1-49.4,49.4c0,4.8,0.7,9.4,2,13.8
				c-21.1,5.6-36.6,24.8-36.6,47.7c0,27.3,22.1,49.4,49.4,49.4c4.3,0,8.5-0.6,12.6-1.6c0,0.5,0,1.1,0,1.6
				c0,27.3,22.1,49.4,49.4,49.4c9,0,17.4-2.4,24.7-6.6c4.5-2.6,8.5-5.9,12-9.7c0.3-0.3,0.5-0.6,0.8-0.9c0.2,0.3,0.4,0.6,0.6,0.9
				c0.4,0.6,0.8,1.1,1.2,1.6c6,7.7,14.3,13.6,23.9,16.7c4.7,1.5,9.8,2.3,15,2.3c0,0,0,0,0.1,0c12.1,0,23.1-4.4,31.7-11.6
				c8.6,7.2,19.7,11.6,31.8,11.6c27.3,0,49.4-22.1,49.4-49.4c0-7.7-1.8-15-4.9-21.5C1082.3,602.6,1086.8,591.3,1086.8,579z"/>
			<g>
				<g>
					<path fill="#926522" d="M928,663.1c-0.4-0.5-0.8-1.1-1.2-1.6h-1.4c-3.5,3.8-7.5,7.1-12,9.7c0.4,2.8,0.9,6.1,1.4,9.9
						c3.9-2.5,7.5-5.4,10.6-8.9c0.3-0.3,0.5-0.6,0.8-0.9c0.2,0.3,0.4,0.6,0.6,0.9c0.4,0.6,0.8,1.1,1.2,1.6c1.1,1.4,2.2,2.7,3.4,3.9
						L928,663.1z"/>
					<path fill="#926522" d="M966.9,682.1C966.9,682.1,966.9,682.1,966.9,682.1c-5.3,0-10.3-0.8-15-2.3l-3.3,9.5
						c1.1,0.4,2.2,0.8,3.3,1.2c4.7,1.5,9.8,2.3,15,2.3c0,0,0,0,0.1,0c0.1,0,0.2,0,0.3,0C967,689.1,966.9,685.5,966.9,682.1z"/>
				</g>
			</g>
			<path fill="#4BA640" d="M1030.4,671.9c-12.1,0-23.2-4.4-31.8-11.6c-8.6,7.2-19.6,11.6-31.7,11.6c0,0,0,0-0.1,0
				c-5.2,0-10.3-0.8-15-2.3c-9.6-3-17.9-8.9-23.9-16.7c-0.4-0.5-0.8-1.1-1.2-1.6c-0.2-0.3-0.4-0.6-0.6-0.9c-0.3,0.3-0.5,0.6-0.8,0.9
				c-3.5,3.8-7.5,7.1-12,9.7c-7.3,4.2-15.7,6.6-24.7,6.6c-27.3,0-49.4-22.1-49.4-49.4c0-0.5,0-1.1,0-1.6c-4,1.1-8.2,1.6-12.6,1.6
				c-25.5,0-46.5-19.4-49.1-44.2c-0.2,1.7-0.3,3.4-0.3,5.1c0,27.3,22.1,49.4,49.4,49.4c4.3,0,8.5-0.6,12.6-1.6c0,0.5,0,1.1,0,1.6
				c0,27.3,22.1,49.4,49.4,49.4c9,0,17.4-2.4,24.7-6.6c4.5-2.6,8.5-5.9,12-9.7c0.3-0.3,0.5-0.6,0.8-0.9c0.2,0.3,0.4,0.6,0.6,0.9
				c0.4,0.6,0.8,1.1,1.2,1.6c6,7.7,14.3,13.6,23.9,16.7c4.7,1.5,9.8,2.3,15,2.3c0,0,0,0,0.1,0c12.1,0,23.1-4.4,31.7-11.6
				c8.6,7.2,19.7,11.6,31.8,11.6c27.3,0,49.4-22.1,49.4-49.4c0-1.7-0.1-3.4-0.3-5C1076.9,652.5,1055.9,671.9,1030.4,671.9z"/>
		</g>
		<g>
			<path fill="none" d="M585.2,622.2c-8.8-0.4-17.2-1.5-25.2-3l8.4,47.2L585.2,622.2z"/>
			<path fill="#B04E27" d="M585.2,622.2l-16.7,44.2l-8.4-47.2c-7.4-1.5-14.4-3.4-20.8-5.8c-0.3,0.1-0.7,0.2-1,0.3
				c0,63.5,0,246.8,0,250.6h92.7l-45.3-187.2l19.7-55c-3.8,0.2-7.6,0.4-11.5,0.4C591.1,622.4,588.1,622.3,585.2,622.2z"/>
			<path fill="#255228" d="M760.2,555.4c0-10-11.6-18.8-29.2-24c4.7-4.4,7.3-9.4,7.3-14.7c0-16.9-26.6-30.6-59.5-30.6
				c-0.7,0-1.5,0-2.2,0c-13.3-18.4-47.8-31.5-88.2-31.5c-33.7,0-63.3,9.1-79.9,22.8c-0.3,0-0.6,0-1,0c-32.9,0-59.5,13.7-59.5,30.6
				c0,0,0,0.1,0,0.1c-27.7,1.3-49.3,13.3-49.3,27.9c0,13.8,19.5,25.3,45.1,27.6c-0.2,1.6-0.3,3.1-0.3,4.8
				c0,26.8,31.4,48.4,70.2,48.4c8.7,0,17-1.1,24.7-3.1c0.3-0.1,0.7-0.2,1-0.3c6.4,2.3,13.3,4.3,20.8,5.8c7.9,1.6,16.4,2.6,25.2,3
				c2.9,0.1,5.8,0.2,8.8,0.2c3.9,0,7.7-0.1,11.5-0.4c15.4-1,29.7-3.8,41.8-8.1c6.1,1.5,13,2.4,20.3,2.4c25.8,0,46.7-10.8,46.7-24
				c0-3.1-1.2-6.1-3.3-8.9C739.4,580.1,760.2,568.8,760.2,555.4z"/>
			<g>
				<path fill="#A24822" d="M560.1,630.6c0.7,0.1,1.4,0.2,2.1,0.4l-2.1-11.8c-7.4-1.5-14.4-3.4-20.8-5.8c-0.3,0.1-0.7,0.2-1,0.3
					c0,3.5,0,7.3,0,11.4c0.3-0.1,0.7-0.2,1-0.3C545.7,627.1,552.7,629.1,560.1,630.6z"/>
				<path fill="#A24822" d="M585.2,622.2l-4.2,11.1c1.4,0.1,2.8,0.2,4.2,0.3c2.9,0.1,5.8,0.2,8.8,0.2c2.5,0,4.9-0.1,7.3-0.2
					l4.2-11.6c-3.8,0.2-7.6,0.4-11.5,0.4C591.1,622.4,588.1,622.3,585.2,622.2z"/>
			</g>
			<path fill="#1A461F" d="M667.7,605.3c-7.3,0-14.2-0.9-20.3-2.4c-12.2,4.3-26.4,7.2-41.8,8.1c-3.8,0.2-7.6,0.4-11.5,0.4
				c-3,0-5.9-0.1-8.8-0.2c-8.8-0.4-17.2-1.5-25.2-3c-7.4-1.5-14.4-3.4-20.8-5.8c-0.3,0.1-0.7,0.2-1,0.3c-7.7,2-16,3.1-24.7,3.1
				c-38.8,0-70.2-21.7-70.2-48.4c0-1.6,0.1-3.2,0.3-4.8c-22.2-2-39.7-10.8-44.1-22.1c-0.7,1.8-1,3.6-1,5.5
				c0,13.8,19.5,25.3,45.1,27.6c-0.2,1.6-0.3,3.1-0.3,4.8c0,26.8,31.4,48.4,70.2,48.4c8.7,0,17-1.1,24.7-3.1c0.3-0.1,0.7-0.2,1-0.3
				c6.4,2.3,13.3,4.3,20.8,5.8c7.9,1.6,16.4,2.6,25.2,3c2.9,0.1,5.8,0.2,8.8,0.2c3.9,0,7.7-0.1,11.5-0.4c15.4-1,29.7-3.8,41.8-8.1
				c6.1,1.5,13,2.4,20.3,2.4c25.8,0,46.7-10.8,46.7-24c0-1.9-0.4-3.7-1.2-5.5C708.3,597.4,689.8,605.3,667.7,605.3z"/>
			<path fill="#255228" d="M711.1,572.5c2.1,2.7,3.3,5.7,3.3,8.9c0,0.6-0.1,1.1-0.1,1.7c26.7-3.8,46-14.7,46-27.6
				c0-1.9-0.4-3.7-1.2-5.5C754.3,560.8,735.5,569.6,711.1,572.5z"/>
			<path fill="#255228" d="M760.2,555.4c0-10-11.6-18.8-29.2-24c4.7-4.4,7.3-9.4,7.3-14.7c0-16.9-26.6-30.6-59.5-30.6
				c-0.7,0-1.5,0-2.2,0c-13.3-18.4-47.8-31.5-88.2-31.5c-33.7,0-63.3,9.1-79.9,22.8c-0.3,0-0.6,0-1,0c-32.9,0-59.5,13.7-59.5,30.6
				c0,0,0,0.1,0,0.1c-27.7,1.3-49.3,13.3-49.3,27.9c0,13.8,19.5,25.3,45.1,27.6c-0.2,1.6-0.3,3.1-0.3,4.8
				c0,26.8,31.4,48.4,70.2,48.4c8.7,0,17-1.1,24.7-3.1c0.3-0.1,0.7-0.2,1-0.3c6.4,2.3,13.3,4.3,20.8,5.8c7.9,1.6,16.4,2.6,25.2,3
				c2.9,0.1,5.8,0.2,8.8,0.2c3.9,0,7.7-0.1,11.5-0.4c15.4-1,29.7-3.8,41.8-8.1c6.1,1.5,13,2.4,20.3,2.4c25.8,0,46.7-10.8,46.7-24
				c0-3.1-1.2-6.1-3.3-8.9C739.4,580.1,760.2,568.8,760.2,555.4z"/>
		</g>
	</g>
</g>
</svg>
